<?xml version="1.0" encoding="utf-8"?>
<!-- Generator: Adobe Illustrator 20.1.0, SVG Export Plug-In . SVG Version: 6.00 Build 0)  -->
<svg version="1.1" id="Layer_1" xmlns="http://www.w3.org/2000/svg" xmlns:xlink="http://www.w3.org/1999/xlink" x="0px" y="0px"
	 viewBox="0 0 25 20" style="enable-background:new 0 0 25 20;" xml:space="preserve">
<style type="text/css">
	.st0{fill:#FFFFFF;}
</style>
<path class="st0" d="M22.5,18.9c0,0.6-0.5,1.1-1.1,1.1c0,0,0,0,0,0h-5.1v-7.7h2.6l0.4-3h-3V7.3c0-0.9,0.2-1.5,1.5-1.5l1.6,0V3.1
	c-0.3,0-1.2-0.1-2.3-0.1c-2.3,0-3.9,1.4-3.9,4v2.2h-2.6v3h2.6V20H3.6c-0.6,0-1.1-0.5-1.1-1.1c0,0,0,0,0,0V1.1C2.5,0.5,3,0,3.6,0
	h17.8c0.6,0,1.1,0.5,1.1,1.1C22.5,1.1,22.5,18.9,22.5,18.9z"/>
</svg>
