<?xml version="1.0" encoding="utf-8"?>
<!-- Generator: Adobe Illustrator 20.1.0, SVG Export Plug-In . SVG Version: 6.00 Build 0)  -->
<svg version="1.1" id="Layer_1" xmlns="http://www.w3.org/2000/svg" xmlns:xlink="http://www.w3.org/1999/xlink" x="0px" y="0px"
	 viewBox="0 0 25 20" style="enable-background:new 0 0 25 20;" xml:space="preserve">
<style type="text/css">
	.st0{fill:#FFFFFF;}
</style>
<path class="st0" d="M23.8,0.4c-1,0.6-2,1-3.1,1.2c-0.9-1-2.2-1.6-3.6-1.6c-2.7,0-4.9,2.3-4.9,5c0,0.4,0,0.8,0.1,1.1
	C8.2,6,4.6,4,2.2,0.9C1.7,1.7,1.5,2.6,1.5,3.5c0,1.8,0.9,3.3,2.2,4.2C2.9,7.6,2.1,7.4,1.5,7v0.1c0,2.4,1.7,4.5,4,5
	c-0.4,0.1-0.9,0.2-1.3,0.2c-0.3,0-0.6,0-0.9-0.1c0.6,2,2.4,3.5,4.6,3.5c-1.7,1.4-3.9,2.2-6.1,2.2c-0.4,0-0.8,0-1.2-0.1
	C2.7,19.2,5.4,20,8,20c9.1,0,14-7.7,14-14.4c0-0.2,0-0.4,0-0.7c1-0.7,1.8-1.6,2.5-2.6c-0.9,0.4-1.8,0.7-2.8,0.8
	C22.7,2.5,23.5,1.5,23.8,0.4"/>
</svg>
