<?xml version="1.0" encoding="utf-8"?>
<!-- Generator: Adobe Illustrator 20.1.0, SVG Export Plug-In . SVG Version: 6.00 Build 0)  -->
<svg version="1.1" id="Layer_1" xmlns="http://www.w3.org/2000/svg" xmlns:xlink="http://www.w3.org/1999/xlink" x="0px" y="0px"
	 viewBox="0 0 25 20" style="enable-background:new 0 0 25 20;" xml:space="preserve">
<style type="text/css">
	.st0{clip-path:url(#SVGID_2_);fill:#FFFFFF;}
</style>
<g>
	<defs>
		<rect id="SVGID_1_" y="3" width="25" height="14.3"/>
	</defs>
	<clipPath id="SVGID_2_">
		<use xlink:href="#SVGID_1_"  style="overflow:visible;"/>
	</clipPath>
	<path class="st0" d="M24.7,15.8c0-0.1-0.1-0.1-0.1-0.2c-0.4-0.8-1.3-1.7-2.5-2.9l0,0l0,0l0,0h0c-0.6-0.5-0.9-0.9-1-1.1
		c-0.3-0.3-0.3-0.7-0.2-1c0.1-0.3,0.5-0.8,1.2-1.7c0.3-0.4,0.6-0.7,0.8-1.1c1.5-2,2.1-3.3,1.9-3.8l-0.1-0.1
		c-0.1-0.1-0.2-0.1-0.4-0.2c-0.2-0.1-0.5-0.1-0.8,0l-3.7,0c-0.1,0-0.1,0-0.3,0l-0.2,0l-0.1,0l-0.1,0c0,0-0.1,0.1-0.1,0.1
		C19,4,19,4.1,19,4.2c-0.4,1-0.9,2-1.4,2.9c-0.3,0.5-0.6,1-0.9,1.4c-0.3,0.4-0.5,0.7-0.7,0.9c-0.2,0.2-0.3,0.3-0.5,0.4
		c-0.1,0.1-0.3,0.2-0.3,0.1c-0.1,0-0.2,0-0.2-0.1c-0.1-0.1-0.2-0.2-0.3-0.3c-0.1-0.1-0.1-0.3-0.1-0.5c0-0.2,0-0.3,0-0.5
		c0-0.1,0-0.4,0-0.6c0-0.3,0-0.4,0-0.5c0-0.3,0-0.7,0-1.1c0-0.4,0-0.7,0-0.9c0-0.2,0-0.5,0-0.7c0-0.2,0-0.4,0-0.6
		c0-0.1-0.1-0.3-0.1-0.4c-0.1-0.1-0.1-0.2-0.3-0.3c-0.1-0.1-0.3-0.1-0.4-0.2c-0.5-0.1-1-0.2-1.7-0.2c-1.6,0-2.6,0.1-3.1,0.3
		C8.7,3.4,8.5,3.5,8.4,3.7C8.2,3.9,8.2,4,8.3,4c0.5,0.1,0.9,0.3,1.1,0.6l0.1,0.2C9.5,4.8,9.6,5,9.7,5.3c0.1,0.3,0.1,0.6,0.1,0.9
		c0,0.6,0,1.2,0,1.6c0,0.4-0.1,0.8-0.1,1c0,0.3-0.1,0.5-0.2,0.6C9.4,9.7,9.4,9.8,9.3,9.8c0,0,0,0.1-0.1,0.1C9.1,9.9,9,9.9,8.9,9.9
		c-0.1,0-0.3-0.1-0.4-0.2C8.3,9.6,8.1,9.5,7.9,9.3C7.7,9.1,7.5,8.8,7.3,8.4C7.1,8,6.8,7.6,6.6,7L6.4,6.7C6.2,6.4,6.1,6.1,5.8,5.6
		C5.6,5.2,5.4,4.7,5.3,4.3C5.2,4.1,5.1,3.9,4.9,3.9l-0.1,0c0,0-0.1-0.1-0.2-0.1c-0.1,0-0.2-0.1-0.3-0.1l-3.5,0
		c-0.4,0-0.6,0.1-0.7,0.2L0,4c0,0,0,0.1,0,0.2c0,0.1,0,0.2,0.1,0.3C0.6,5.7,1.1,6.9,1.8,8c0.6,1.1,1.1,2,1.6,2.7
		c0.4,0.7,0.9,1.3,1.4,2c0.5,0.6,0.8,1,0.9,1.2C5.8,14,5.9,14.2,6,14.3l0.3,0.3c0.2,0.2,0.5,0.5,0.9,0.7c0.4,0.3,0.8,0.6,1.3,0.9
		c0.5,0.3,1.1,0.5,1.7,0.7c0.6,0.2,1.3,0.2,1.9,0.2h1.5c0.3,0,0.5-0.1,0.7-0.3l0.1-0.1c0-0.1,0.1-0.1,0.1-0.2c0-0.1,0-0.2,0-0.4
		c0-0.4,0-0.7,0.1-1c0.1-0.3,0.1-0.5,0.2-0.7c0.1-0.2,0.2-0.3,0.3-0.4c0.1-0.1,0.2-0.2,0.2-0.2c0,0,0.1,0,0.1,0
		c0.2-0.1,0.5,0,0.7,0.2c0.3,0.2,0.5,0.5,0.8,0.8c0.2,0.3,0.5,0.6,0.9,1c0.3,0.4,0.6,0.6,0.9,0.8l0.3,0.2c0.2,0.1,0.4,0.2,0.7,0.3
		c0.3,0.1,0.5,0.1,0.7,0.1l3.3-0.1c0.3,0,0.6-0.1,0.8-0.2c0.2-0.1,0.3-0.2,0.3-0.4c0-0.1,0-0.3,0-0.4C24.8,16,24.7,15.9,24.7,15.8z"
		/>
</g>
</svg>
